<svg width="929" height="920" viewBox="0 0 929 920" fill="none" xmlns="http://www.w3.org/2000/svg">
<path d="M0 460C0 714.051 210.449 920 464.5 920C718.551 920 929 714.051 929 460C929 205.949 718.551 0 464.5 0C210.449 0 0 205.949 0 460Z" fill="black"/>
<mask id="mask0_210_20" style="mask-type:luminance" maskUnits="userSpaceOnUse" x="205" y="187" width="519" height="547">
<path d="M723.258 187H205V733.641H723.258V187Z" fill="white"/>
</mask>
<g mask="url(#mask0_210_20)">
<path d="M635.415 733.642H205V275.703H303.479V644.892H635.415V733.594V733.642Z" fill="white"/>
<path d="M635.413 364.405C683.928 364.405 723.258 324.691 723.258 275.702C723.258 226.714 683.928 187.001 635.413 187.001C586.899 187.001 547.569 226.714 547.569 275.702C547.569 324.691 586.899 364.405 635.413 364.405Z" fill="white"/>
</g>
</svg>
