<svg width="929" height="920" viewBox="0 0 929 920" fill="none" xmlns="http://www.w3.org/2000/svg">
<g clip-path="url(#clip0_210_3)">
<path d="M0 460C0 714.051 210.449 920 464.5 920C718.551 920 929 714.051 929 460C929 205.949 718.551 0 464.5 0C210.449 0 0 205.949 0 460Z" fill="black"/>
<path d="M463.523 856.981V721.791C449.914 721.791 436.008 720.608 422.399 718.537L401.097 851.952C421.807 855.502 442.813 856.981 463.523 856.981ZM525.654 852.248C546.364 848.994 566.778 844.26 586.601 837.752L544.885 709.071C531.867 713.212 518.257 716.466 504.648 718.537L525.654 852.248ZM340.446 837.752L382.162 709.367C369.144 705.225 356.422 699.9 343.996 693.688L282.457 814.087C301.096 823.257 320.623 831.244 340.446 837.752ZM644.294 814.087C662.933 804.621 680.684 793.675 697.548 781.547L617.666 672.389C606.719 680.376 594.885 687.772 582.459 693.688L644.294 814.087ZM229.202 781.251L309.084 672.093C298.138 664.106 287.487 655.232 277.723 645.47L181.865 741.019C196.658 755.514 212.634 769.122 229.202 781.251ZM744.59 741.611L745.478 740.724C760.271 726.228 773.88 710.254 786.01 693.688L676.542 614.113C668.554 625.058 659.382 635.707 649.915 645.174L648.436 646.653L694.59 690.138L744.59 741.611ZM141.332 693.392L250.8 613.817C242.812 602.871 235.415 591.039 229.202 578.91L108.491 640.145C117.959 658.781 128.906 676.531 141.332 693.392ZM818.555 640.441C828.023 622.1 836.011 602.576 842.52 582.756L713.525 541.341C709.383 554.357 704.057 567.077 697.844 579.206L818.555 640.441ZM84.5268 582.756L213.522 541.045C209.38 528.029 206.125 514.717 204.054 501.109L70.0296 522.113C73.2841 542.524 78.3137 562.936 84.5268 582.756ZM857.017 522.408C860.271 501.997 862.047 480.994 862.047 460.286H726.543C726.543 473.894 725.359 487.797 723.288 501.405L857.017 522.408ZM200.8 459.99C200.8 446.383 201.983 432.479 204.054 418.871L70.0296 397.868C66.7752 418.28 65.2959 439.283 65 459.99H200.8ZM723.288 419.167L857.313 398.164C854.058 377.752 849.325 357.341 842.816 337.521L713.821 378.936C717.963 392.248 721.217 405.56 723.288 419.167ZM213.522 378.936C217.664 365.92 222.989 353.199 229.202 341.071L108.491 279.836C99.0239 298.177 91.0357 317.701 84.5268 337.521L213.522 378.936ZM698.14 341.367L819.147 280.132C809.679 261.495 798.732 243.746 786.306 226.884L676.542 306.46C684.531 317.405 691.927 329.238 698.14 341.367ZM250.8 306.164C258.788 295.219 267.96 284.569 277.723 274.807L278.019 274.511L182.161 178.961L181.865 179.257C167.072 194.048 153.462 209.727 141.332 226.588L250.8 306.164ZM649.915 275.399L678.909 246.113L745.478 179.849L745.182 179.553C730.389 165.058 714.708 151.45 698.14 139.322L618.258 248.479C629.205 256.466 639.856 265.341 649.323 275.103L649.915 275.399ZM309.38 247.887C320.327 239.9 332.161 232.801 344.588 226.588L283.049 106.19C264.41 115.656 246.658 126.601 229.794 138.73L309.38 247.887ZM583.346 226.884L645.181 106.486C626.542 97.0193 607.311 89.0322 587.488 82.5241L545.476 210.91C558.198 215.347 570.92 220.672 583.346 226.884ZM382.753 210.91C395.771 206.768 409.381 203.514 422.99 201.444L401.984 68.0289C381.57 71.283 360.86 76.0161 341.037 82.5241L382.753 210.91ZM504.944 201.444L526.246 68.0289C505.831 64.7749 484.825 63 464.115 63V198.19C477.724 198.19 491.63 199.373 504.944 201.444Z" fill="white"/>
<path d="M463.523 728.003V592.222C451.985 592.222 440.742 590.743 429.499 587.785L393.996 718.833C416.777 724.749 440.15 728.003 463.523 728.003ZM533.05 718.833C555.832 712.916 577.429 704.042 597.844 692.209L529.204 574.769C519.441 580.389 508.79 584.826 497.843 587.785L533.05 718.833ZM329.499 692.209L398.138 574.769C388.375 569.148 379.203 562.048 370.919 554.061L369.736 552.878L326.54 598.138L273.285 649.315L274.173 650.203C290.741 666.473 309.38 680.672 329.499 692.209ZM653.169 650.203C669.738 633.637 684.235 615.296 695.773 595.18L577.133 527.142C571.512 536.904 564.411 545.778 556.127 554.061L653.169 650.203ZM231.273 594.884L349.913 527.142C344.292 517.379 339.854 507.026 336.895 496.08L204.646 530.987C210.563 553.174 219.735 574.769 231.273 594.884ZM722.697 531.283C728.614 508.801 731.868 485.727 731.868 462.653H594.885C594.885 473.894 593.406 485.431 590.447 496.376L722.697 531.283ZM332.753 462.357C332.753 451.116 334.232 439.579 337.191 428.633L204.646 393.727C198.729 416.209 195.474 439.283 195.474 462.357H332.753ZM590.151 428.929L722.697 394.023C716.779 371.54 707.608 349.945 696.069 329.83L577.429 397.572C582.755 407.63 587.193 417.984 590.151 428.929ZM350.209 397.572C355.83 388.106 362.635 378.936 370.919 370.949L371.215 370.653L322.102 322.138L275.06 273.92L274.173 274.807C257.605 291.077 243.403 309.714 231.569 329.534L350.209 397.572ZM556.127 370.949L604.648 322.73L654.353 275.99L653.169 274.807C636.601 258.241 617.962 244.338 597.844 232.505L529.204 349.945C538.967 355.566 547.843 362.37 556.127 370.357V370.949ZM398.138 349.945C407.902 344.325 418.553 339.888 429.499 336.929L394.588 205.881C371.807 211.797 350.209 220.672 329.795 232.505L398.138 349.945ZM497.547 337.225L533.05 206.177C510.565 200.26 487.192 197.006 463.819 197.006V332.788C475.062 332.788 486.6 334.267 497.547 337.225Z" fill="white"/>
</g>
<defs>
<clipPath id="clip0_210_3">
<rect width="929" height="920" fill="white"/>
</clipPath>
</defs>

</svg>
